# xmcd
#
# Track frame offsets:
#	150
#	11327
#	26699
#	46094
#	64907
#	76991
#	96420
#	111992
#	123124
#	136692
#	147156
#	159481
#
# Disc length: 2322 seconds
# Revision: 4
# Processed by: cddbd v1.5.2PL0 Copyright (c) Steve Scherf et al.
# Submitted via: dBpowerAMP V12.0
#
DISCID=9409100c
DTITLE=JamesHunter,AKANeilJamesHuntsman,Colchester,Essex,England,UK - The Hard Way
DYEAR=2008
DGENRE=Blues
TTITLE0=The Hard Way
TTITLE1=Tell Her
TTITLE2=Don't Do Me No Favours
TTITLE3=Carina
TTITLE4=She's Got A Way
TTITLE5='Til The End
TTITLE6=Hand It Over
TTITLE7=Jacqueline
TTITLE8=Class Act
TTITLE9=Ain't Got Nowhere
TTITLE10=Believe Me Baby
TTITLE11=Strange But True
EXTD=
EXTT0=
EXTT1=
EXTT2=
EXTT3=
EXTT4=
EXTT5=
EXTT6=
EXTT7=
EXTT8=
EXTT9=
EXTT10=
EXTT11=
PLAYORDER=
